<?xml version="1.0" encoding="utf-8"?>
<!-- Generator: Adobe Illustrator 27.3.1, SVG Export Plug-In . SVG Version: 6.00 Build 0)  -->
<svg version="1.1" id="Logo" xmlns="http://www.w3.org/2000/svg" xmlns:xlink="http://www.w3.org/1999/xlink" x="0px" y="0px"
	 viewBox="0 0 532.9 532.9" style="enable-background:new 0 0 532.9 532.9;" xml:space="preserve">
<style type="text/css">
	.st0{display:none;fill:none;stroke:#181715;stroke-width:52;stroke-miterlimit:10;}
	.st1{fill:#2D2D2D;}
</style>
<polyline class="st0" points="389.4,16.9 424.3,181.5 259.7,216.4 "/>
<path class="st0" d="M455.1,295.6c0,101.7-82.5,184.2-184.2,184.2S86.7,397.3,86.7,295.6s82.5-184.2,184.2-184.2"/>
<path class="st0" d="M270.9,111.4c48.4,0,92.5,18.7,125.3,49.2"/>
<path class="st1" d="M429.1,295.6c0,87.2-71,158.2-158.2,158.2s-158.2-71-158.2-158.2s71-158.2,158.2-158.2
	c33.8,0,66.2,10.7,93.1,30.3L254.3,191l10.8,50.9l190-40.3l-40.3-190L364,22.3l20.4,96.4C350.8,97,311.6,85.4,270.9,85.4
	C155,85.4,60.7,179.7,60.7,295.6S155,505.8,270.9,505.8s210.2-94.3,210.2-210.2L429.1,295.6L429.1,295.6z"/>
</svg>
